<svg xmlns="http://www.w3.org/2000/svg" viewBox="0 0 1024 1024"><title>aare.guru-icon</title><g id="Ebene_1" data-name="Ebene 1"><circle cx="512" cy="512" r="500" style="fill:#0271b5"/><path d="M533.21,642.84,517.3,708c-23.79,1.28-47-26.39-50.74-49.34a73.29,73.29,0,0,1-.86-8.12,80.7,80.7,0,0,1,1.86-21.94,76,76,0,0,1,2.63-9.06,72.55,72.55,0,0,1,19.73-29.53,79.17,79.17,0,0,1,10.31-7.92q2.26-1.49,4.73-2.87a92.52,92.52,0,0,0-5.4,12.87c-2.63,8.18-2.69,14.19-1.12,18.88,4.92,14.65,25.8,16.55,34.76,31.8C533.2,642.83,533.21,642.83,533.21,642.84Z" style="fill:#fde302;opacity:0.9"/><path d="M601.24,629.82a59.89,59.89,0,0,1-2.55,24.68c-12.35,39.35-31.3,44.44-39.42,48.12l-23.69-11.11-2.37-48.67.06,0" style="fill:#fde302;opacity:0.9"/><path d="M366,693.21c.25,18.93-14.66,70.92-29.83,95.83s-26.54,81.24,8.67,125.12c-14.63-27.09,11.37-72.58,39-92.08s24.92-48.75,24.92-48.75,31.41,23.29,56.62,15.71,67.59,3.25,87.45,43.87c.54-42.24-50.37-96.95-82.87-94.78s-65.54-6.5-70-38.58Z" style="fill:#fde302;opacity:0.9"/><path d="M505.58,446.55c-5.85,23.48-6.93,46.22-14,57.06s-27.63,41.7-34.13,54.16-8.12,34.12-14.08,46-66.62,91-39,161.94c-52.53-37.91-39.47-110.49-30.83-129.45s22.71-80.16,21.63-98.57-14-86.3,46.91-104.35S505.58,446.55,505.58,446.55Z" style="fill:#fde302"/><path d="M628.82,638.42c-13.24-49.19-103.09-87-103.09-142.58,0-15.88,12.16-32,12.16-32l47.42-6.27,33.6,16.07c-1.83,14.26,96.39,71,92.41,168.8s-68.6,127.83-114.46,127.83-77.57-34.73-83.05-63.19c-5.41-28.17,4.21-55.59,19.37-64.26,9.18,17.8,9.16,72.56,48.52,72.56,24.55,0,48.74-10.47,48.74-65a46,46,0,0,0-1.62-12" style="fill:#fde302"/><path d="M338.09,452.91a6.05,6.05,0,0,1-.93,2.36,8.59,8.59,0,0,1-2.59,2.19,86.92,86.92,0,0,1-12.37,6.44,8.52,8.52,0,0,1-3.06.84,8.92,8.92,0,0,1-3.48-.89,4.2,4.2,0,0,1-1.59-.94c-1.12-1.24-.53-3.46-1.74-4.61-.59-.56-1.55-.8-1.81-1.57a2.74,2.74,0,0,1,.05-1.3,5.18,5.18,0,0,0-.95-3.81c-.37-.51-.84-.95-1.21-1.46a5.31,5.31,0,0,1,1-6.82h0s-2.63-5.68-.31-6,4.75-4.09,6.3-4.31,3.37.75,5.91-.8,8.51,1.44,8.51,1.44a10.37,10.37,0,0,0,8.27.25c17-6.69,31.82-35.08,43.17-37-1.89-11,13.57-41.64,19.56-45.42,2.65-1.68,4.72-14.5,10.06-26.92,3.93-9.15,69.67-19.5,88.51-18.43,3.27.18,8.75-.19,16,1.42s17.88,6.91,21.38,7.72,12.8,1.05,12.8,1.05,6.83-1.59,8.44-1.86,13.45-15.86,13.45-15.86l-17.21,48.41s-18,33.07-22.32,39.26-7.53,16.41-9.15,21.25-3.76,18.28-7.26,23.66-5.92,13.18-9.95,15.33-7.53,2.42-12.1,2.42-36.85-5.11-39.81-7.8-11.56-7.79-11.56-7.79,11-16.95,11.3-30.13c.8-32.54-18.83-41.14-21.79-46.25,0,0-26.36,45.18-32.54,49.21-2.42,7.53-15.06,19.9-23.67,24.21s-36,20.61-37.32,22.49" style="fill:#27e4fd"/><path d="M456,403.71c-8.1,4.05-17.48,10.66-20.68,12.37s-8.31,1.49-11.09,8.1-4.26,21.75-3.83,25.37,1.27,6.82,4.26,9.17,5.33,2.34,7.68,1.71c0,0,2.34,2.13,4.26,2.13s3.41-.22,4.05-2.35c0,0,4,3.84,7,2.35s3.41-2.13,1.92-4.27a3.79,3.79,0,0,0,1.49-2.56c.21-1.7-2.56-3.41-5.55-4.05s-6.82-3.62-8.31-4.69,0-4.05,0-4.05,4.48,1.28,6.18,3.84,3.2,4.05,4.69,3.2,5.12-6.4-5.75-12.37c1.06-3.84.42-4.9-1.28-6.61s8.31-4.69,8.31-4.69L495,408.61s33.05-38.37,38.59-23.45,7,36.67,10,41.58c-5.11,8.74-1.49,12.58-5.33,18.33s-2.77,13.44-.42,18.77,36.46,20,81,9.8c1.07-10.44,5.12-11.72,6-15.13s2.77-14.72,2.77-19.62,4.69-14.71,8.32-21.32,6.39-12.37,6.39-12.37c12.37,9.17,27.93,30.07,31.56,35.82s2.13,8.1,5.54,8.53,6,1.71,9.81-.43,39.23-27.29,53.3-62c0,0,9-32.2,11.73-34.12s6.4-8.31,3-9.59-6,1.92-9.39,1.71-2.13,4.69-4,6.61-6,5.75-6.61,8.31-.42,8.74-3.19,11.3a14,14,0,0,0-3.63,4.91,92,92,0,0,1-14.85,15.28c-9.17,7.46-24.35,10.91-28.4,16.67,1.28-12.37-13.95-34.44-21.2-39.56-3-27.22-8.26-43.35-42.37-50l-11.3-27.51-33.69,3.2-20.47,21.75-24.73,17.48-41.36,41.58Z" style="fill:#27e4fd"/><path d="M660.18,520.1a271.66,271.66,0,0,1,19,23.6l-50.34,94.72c-3-11.12-9.9-21.66-18.8-31.95Z" style="fill:#27e4fd"/><rect x="386.57" y="491.67" width="8.52" height="226.73" transform="translate(-213.28 212.77) rotate(-24.14)" style="fill:#27e4fd"/><path d="M622.28,221l6.15,21-2,17.62L624.13,285l-6.39,15.41-31.24,4.49s-14.48-17.61-15.3-18-4-19.49-4-19.49l-8.57-19c-.44-1,2.91-14.18,3.63-15s33.57-17,33.57-17Z" style="fill:#27e4fd"/><path d="M432.9,332.66c6.06-17.73,11.56-37,11.56-37L450.17,210l55.3-17.57L525,206.67l3.34,12.24-3,17.42c1.14,13.16.81,22.34-5.08,30.87s-7.57,16.46-18.74,13.56-20.15-8.39-22.24-11.55a40.17,40.17,0,0,0,21.43,12.93,21.65,21.65,0,0,0,10.5,0c-.34,16.41,1.39,26,5.35,28.95s11.4,7,14.91,7.82" style="fill:#27e4fd"/><rect x="412.2" y="549.05" width="503.53" height="8.52" transform="translate(-115.12 927.51) rotate(-65.46)" style="fill:#fde302;stroke:#fde302;stroke-miterlimit:10;stroke-width:1.31946979580388px"/><polygon points="763.42 331.24 766.12 323.31 795.94 320.28 796.78 327.82 763.42 331.24" style="fill:#fde302;stroke:#fde302;stroke-linecap:round;stroke-linejoin:round;stroke-width:5.27787918321553px"/><polygon points="763.42 331.24 769.3 325.27 757.44 292.82 750.33 295.44 763.42 331.24" style="fill:#fde302;stroke:#fde302;stroke-linecap:round;stroke-linejoin:round;stroke-width:5.27787918321553px"/><polyline points="773.5 326.68 806.54 217.38 764.44 322.74" style="fill:#fde302;stroke:#fde302;stroke-linecap:round;stroke-linejoin:round;stroke-width:5.27787918321553px"/><path d="M796.78,327.82c5.06-23.19,29.49-71,51.79-83.27-15.77,5.76-49.82,44-58.55,76.79" style="fill:#fde302;stroke:#fde302;stroke-linecap:round;stroke-linejoin:round;stroke-width:5.27787918321553px"/><path d="M750.33,295.44c11.43-20.8,22.76-72.78,14-96.66,8.09,14.71,7.95,67.88-7,98.33" style="fill:#fde302;stroke:#fde302;stroke-linecap:round;stroke-linejoin:round;stroke-width:5.27787918321553px"/><rect x="368.27" y="284.9" width="8.52" height="558.56" transform="translate(-198.17 201.72) rotate(-24.14)" style="fill:#fde302;stroke:#fde302;stroke-miterlimit:10;stroke-width:1.31946979580388px"/><polygon points="296.51 273.52 278.67 305.33 293.73 296.42 307.74 305.64 296.51 273.52" style="fill:#fde302;stroke:#fde302;stroke-linecap:round;stroke-linejoin:round;stroke-width:2.63893959160776px"/><polygon points="212.09 322.11 244.97 337.9 227.52 339.26 221.36 354.85 212.09 322.11" style="fill:#fde302;stroke:#fde302;stroke-linecap:round;stroke-linejoin:round;stroke-width:2.63893959160776px"/><polygon points="249.4 291.1 249.36 327.57 258.16 312.44 274.88 313.65 249.4 291.1" style="fill:#fde302;stroke:#fde302;stroke-linecap:round;stroke-linejoin:round;stroke-width:2.63893959160776px"/><path d="M293.37,386.47a19.66,19.66,0,0,1-9.67,4c-18.43,2.11-38.5-23.53-51.27-39.84-3.91-5-8.79-11.23-10.37-12.14l3.55-7.74c3.07,1.38,6.56,5.72,13.53,14.63,13.12,16.76,35.09,44.82,49.11,34.29" style="fill:#fde302;stroke:#fde302;stroke-linecap:round;stroke-linejoin:round;stroke-width:2.63893959160776px"/><path d="M289.68,378.82c13.84-6.69,7.28-38.81,2.94-60.06-3.88-19-6-29.42,1-32.16l3.09,7.94a1.93,1.93,0,0,0,1-.88c-1.07,2.52,1.29,14.09,3.19,23.39,5.16,25.26,12.23,59.86-7.57,69.44" style="fill:#fde302;stroke:#fde302;stroke-linecap:round;stroke-linejoin:round;stroke-width:2.63893959160776px"/><path d="M311.53,441.09c1.55-.88,8.4-5.86,9.83-5.53s5.31.87,5.42,2.32a14.07,14.07,0,0,1-.55,3.76,3.05,3.05,0,0,1,1.76,4.75s3.65,3.1,1.66,5.53c0,0,2.81,3.22.6,3.89s1.06,3.29-4.58,3.84-8.17,0-8.17,0" style="fill:#27e4fd"/><path d="M760.67,350a57,57,0,0,0-5.5,3.06c-.88.76-8.54-1.34-9.2.48s1.23,4.66,1.23,4.66-4.72-.93-5.39.9,2.9,5.68,7.61,6.07c0,0-5.07-.19-5.17,2.16s5.35,3.44,5.35,3.44c-5.36,1.8-2.34,5.85,2.71,5.51s8.79-1.73,9.22-5.36-1.18-2.85-.72-5.21S764,364.3,765,361s-1-3.94-.73-5.76,6.93-3.48-.54-11Z" style="fill:#27e4fd"/><path d="M224.43,656.24c-51.65-82.53-56.64-123.37-87.51-187.33l84.18,1.92,39.14-59.2c17.35,39.91,26.82,72.79,50.34,118.21" style="fill:#fde302"/><path d="M747.54,434.26c-21,95.06-12,135.22-19.71,205.82l78.67-30,56.71,42.66c3-43.41.89-77.56,7.84-128.24" style="fill:#fde302"/><path d="M171.42,672c8.78,31.8,207.66,23.22,129.93-160.82L245.45,535,171.64,644l-1.28,24Z" style="fill:#fde302"/><path d="M765.69,565.26c-27.38,2-46.59-128.85-.12-167.32s101.12-36.58,108.14-9l4.58,19.17L870,449.61,792,555.67l-22.23,9.26Z" style="fill:#fde302"/><path d="M864.46,542.15c-126,26.74-145.2,60.41-263.22,87.67-15.3,3.54-32.29,7-51.39,10.26q-8.54,1.47-16.58,2.72h-.07c-9-15.25-29.84-17.15-34.76-31.8-1.57-4.69-1.51-10.7,1.12-18.88a92.52,92.52,0,0,1,5.4-12.87q-2.46,1.38-4.73,2.87a79.17,79.17,0,0,0-10.31,7.92,72.55,72.55,0,0,0-19.73,29.53,76,76,0,0,0-2.63,9.06,80.7,80.7,0,0,0-1.86,21.94c-101.86,6.84-133.51-16.37-273.75,6.86-20.89,3.32-22.66,6.16-20.53,14.58-.68-1-20.48-85.38-22.67-131.52-.3-6.07-2.71-15.35,32-21.1,159.5-24.21,173.31,14.28,345.62-15.43,170.94-29.47,172.43-69.94,327-100.48l-.24.06c20.71-4.1,22.64-6.16,20.51-14.58.7,1,20.5,85.38,22.69,131.51C896.67,526.57,898.56,534.57,864.46,542.15Z" style="fill:#fff"/><path d="M234.84,628.91c-.71.09-1.21-.3-1.49-1.16l-18.32-63-.26,0-3,65.64c-.07.91-.46,1.41-1.16,1.49l-7,.86c-.71.08-1.2-.3-1.49-1.17l-25-85.95c-.29-.86,0-1.35.9-1.46l8.1-1a1.33,1.33,0,0,1,1.63,1.15l16.67,63.77.27,0,3.12-66.19c0-.9.37-1.39,1.17-1.49l5.84-.71a1.25,1.25,0,0,1,1.49,1.16l18.94,63.5.26,0,1.13-65.95a1.32,1.32,0,0,1,1.28-1.5l7.74-.94c.88-.11,1.28.29,1.22,1.2l-3.64,89.44c-.07.91-.46,1.4-1.16,1.49Z" style="fill:#0271b5"/><path d="M303.93,625.3c-.71,0-1.17-.43-1.36-1.32L291.1,559.35h-.26l-10,64.94c-.17.9-.61,1.35-1.32,1.36l-7.08.1q-1.06,0-1.35-1.32L255.37,536.3c-.2-.89.16-1.34,1.05-1.36l8.16-.11a1.33,1.33,0,0,1,1.5,1.32l9.76,65.19h.26l10.19-65.47c.07-.89.51-1.35,1.32-1.36l5.88-.08c.81,0,1.26.43,1.36,1.32l12,65.16h.26l8.18-65.44a1.31,1.31,0,0,1,1.43-1.36l7.8-.11q1.32,0,1.08,1.32l-13.18,88.54c-.17.9-.61,1.35-1.32,1.36Z" style="fill:#0271b5"/><path d="M376.33,629c-.72-.05-1.13-.52-1.25-1.42l-6.37-65.33-.27,0-15.09,64c-.24.88-.71,1.3-1.42,1.25l-7.07-.46c-.71,0-1.13-.51-1.25-1.42l-8.72-89.09c-.12-.9.26-1.32,1.15-1.26l8.15.52a1.34,1.34,0,0,1,1.39,1.43l4.62,65.76h.26l15.29-64.47c.14-.88.62-1.3,1.42-1.25l5.88.38c.8.05,1.21.52,1.25,1.42l6.89,65.9.26,0,13.28-64.6a1.33,1.33,0,0,1,1.54-1.25l7.78.5c.88.06,1.2.53,1,1.41l-20.08,87.23c-.23.88-.7,1.3-1.41,1.25Z" style="fill:#0271b5"/><path d="M401.42,617.5a1.18,1.18,0,0,1,1.36-1.31l8.7.18a1.19,1.19,0,0,1,1.31,1.37L412.56,629a1.19,1.19,0,0,1-1.37,1.31l-8.7-.18a1.18,1.18,0,0,1-1.31-1.37Z" style="fill:#0271b5"/><path d="M448.74,539.78a1.4,1.4,0,0,0-1.53-1.26l-8,.39c-.72,0-1.19.51-1.41,1.41l-15,89.18c-.14.91.29,1.33,1.28,1.28l8-.39c.71,0,1.14-.5,1.27-1.4l3-20.11,20.19-1,5,19.72a1.43,1.43,0,0,0,1.54,1.27l4.52-.23a76,76,0,0,1,2.63-9.06Zm-11,59.64,6.35-40h.41l9.69,39.2Z" style="fill:#0271b5"/><path d="M536.25,618.55,505,533.73a1.42,1.42,0,0,0-1.64-1.12l-8,1.12c-.71.1-1.12.61-1.27,1.52l-4.2,54.8a79.17,79.17,0,0,1,10.31-7.92l1.9-28.39.4-.06,13.2,38.15-16.3,2.3.13-2c-2.63,8.18-2.69,14.19-1.12,18.88l.44-7.34,20-2.83,6.75,19.21a1.42,1.42,0,0,0,1.64,1.12l8-1.12C536.21,619.9,536.55,619.41,536.25,618.55Z" style="fill:#0271b5"/><path d="M582.86,610.85a1.47,1.47,0,0,1-1.63-.63l-18.6-35.05a13.16,13.16,0,0,1-1.81.5L559,576l-5.38,1.07a.71.71,0,0,0-.63.95l7.18,36a1.19,1.19,0,0,1-1,1.58l-8,1.6a1.18,1.18,0,0,1-1.57-1.05l-17.3-86.64a1.17,1.17,0,0,1,1-1.57l15.62-3.12q11.8-2.37,19.14,2.18t10.15,18.72q1.82,9.06.09,15.14a18.33,18.33,0,0,1-6.45,9.75l20.36,37c.52.8.39,1.28-.4,1.44Zm-25.5-44.32q6.95-1.38,9.5-5.39t.7-13.23q-1.81-9.09-5.65-11.89T551,534.64l-5.65,1.12a.72.72,0,0,0-.63,1L550.77,567a.7.7,0,0,0,.94.63Z" style="fill:#0271b5"/><path d="M582.37,519.09a1.18,1.18,0,0,1,.94-1.64l33.17-9.11a1.19,1.19,0,0,1,1.65.94l2,7.09a1.19,1.19,0,0,1-.94,1.65l-23.23,6.38a.71.71,0,0,0-.57,1l7.52,27.36a.7.7,0,0,0,1,.56L624,547.78a1.19,1.19,0,0,1,1.65.94l2,7.1a1.19,1.19,0,0,1-.94,1.65L606.5,563a.72.72,0,0,0-.56,1l7.76,28.27a.71.71,0,0,0,1,.56l23.24-6.38a1.18,1.18,0,0,1,1.64.94l1.95,7.1a1.18,1.18,0,0,1-.94,1.64l-33.17,9.11a1.17,1.17,0,0,1-1.64-.93Z" style="fill:#0271b5"/><path d="M651.4,579.1a1.18,1.18,0,0,1,.82-1.7l8.21-2.88a1.19,1.19,0,0,1,1.71.82L665.86,586a1.19,1.19,0,0,1-.82,1.71l-8.22,2.88a1.18,1.18,0,0,1-1.7-.82Z" style="fill:#0271b5"/><path d="M672.51,571.43a20.66,20.66,0,0,1-2-2.68,43,43,0,0,1-2.34-4.62q-1.41-3.12-3.59-8.59T659,541.07q-3.47-9-5.5-14.52t-3.09-8.78a43.63,43.63,0,0,1-1.35-5,20.72,20.72,0,0,1-.33-3.31,18.9,18.9,0,0,1,3.08-11.94q3.45-5,10.69-7.83,8.88-3.4,15.63-.55t11.22,11.47c.51.85.42,1.46-.29,1.83l-6.38,4a1.28,1.28,0,0,1-1.86-.44q-2.64-5-6.24-6.85c-2.4-1.23-5.14-1.25-8.24-.06a10.72,10.72,0,0,0-5.13,3.76,9.13,9.13,0,0,0-1.62,5.71,11.77,11.77,0,0,0,.24,2.34A39.18,39.18,0,0,0,661,515c.63,1.91,1.6,4.6,2.88,8.07s3.06,8.17,5.33,14.08,4.09,10.6,5.46,14,2.46,6.08,3.26,7.92A41.12,41.12,0,0,0,679.8,563a10.83,10.83,0,0,0,6.45,5,12.31,12.31,0,0,0,11.57-4.44,9,9,0,0,0,1.69-5.74q-.07-1-.24-2.13a21.88,21.88,0,0,0-.89-3.45c-.49-1.54-1.21-3.6-2.16-6.2s-2.26-6.06-3.92-10.4a.71.71,0,0,0-1-.45l-8.47,3.25a1.19,1.19,0,0,1-1.74-.75l-2.51-6.53a1.18,1.18,0,0,1,.78-1.71l17.62-6.77a1.19,1.19,0,0,1,1.73.77l1.39,3.61q3.26,8.47,5.17,13.67c1.28,3.47,2.26,6.25,2.91,8.33a39.54,39.54,0,0,1,1.29,4.86,20.89,20.89,0,0,1,.34,3.31,18.09,18.09,0,0,1-3,11.89q-3.5,5.05-10.75,7.84t-13.18,1.33A18.76,18.76,0,0,1,672.51,571.43Z" style="fill:#0271b5"/><path d="M749.4,554.35q-9.06,3.66-16.6.35t-11.95-14.24L695.66,478a1.18,1.18,0,0,1,.74-1.74l7.58-3a1.18,1.18,0,0,1,1.74.74l25.69,63.68q2.25,5.58,6,7.33a11.17,11.17,0,0,0,14.15-5.71c1-2.57.73-5.71-.78-9.43l-25.69-63.68a1.19,1.19,0,0,1,.74-1.75l7.58-3.05a1.18,1.18,0,0,1,1.74.74l25.19,62.44q4.41,10.92,1.27,18.54T749.4,554.35Z" style="fill:#0271b5"/><path d="M811.47,531.64a1.47,1.47,0,0,1-1.68-.47l-22-33a13,13,0,0,1-1.76.67l-1.79.55L779,501a.7.7,0,0,0-.53,1l10.73,35.07a1.18,1.18,0,0,1-.89,1.67l-7.81,2.39a1.18,1.18,0,0,1-1.67-.89L753,455.75a1.19,1.19,0,0,1,.88-1.68l15.24-4.66q11.52-3.53,19.26.27t12,17.62q2.71,8.82,1.6,15.05a18.33,18.33,0,0,1-5.45,10.34l23.95,34.81c.6.75.52,1.24-.25,1.47Zm-29.79-41.56q6.78-2.08,8.92-6.31T790,470.53q-2.72-8.86-6.81-11.27t-11-.29l-5.5,1.69a.7.7,0,0,0-.53,1l9,29.56a.71.71,0,0,0,1,.54Z" style="fill:#0271b5"/><path d="M852.38,522.87Q842.83,525,836,520.44t-9.4-16l-14.41-65.77a1.19,1.19,0,0,1,1-1.6l8-1.74a1.18,1.18,0,0,1,1.59,1l14.69,67.08q1.29,5.88,4.68,8.22A11.18,11.18,0,0,0,857,508.36q2.1-3.56.81-9.43l-14.69-67.08a1.18,1.18,0,0,1,1-1.59l8-1.75a1.18,1.18,0,0,1,1.59,1l14.41,65.77q2.52,11.51-1.85,18.49T852.38,522.87Z" style="fill:#0271b5"/><path d="M480.47,163.71s2.12-9.94-9-16.67c9.69,1.4,15.23,15.8,15.23,15.8s4.85-11.44-3.26-20.34c15.9,8.43,10.33,23.74,10.33,23.74L501,169l10.57,15.7,9.56,8.81s9.74-11.05,5.69-15.5c-.68,4-6.93,11-6.93,11a28.34,28.34,0,0,0-2.39-1.75c.14.22,12.21-13.71,8.21-19.37-1,5.38-10.47,13.8-10.47,13.8l-2-1.66s10.26-16.16,6.61-24c-.42,5.85-4.95,11.38-9.73,14.4s-1.56-5.12-1.56-5.12,8.87-21.33-2-29.74c2.77,7-2.41,17.4-6.06,24.87" style="fill:#fde302"/><path d="M473.68,299.42s4.07-1.43,5.27,1.77,2.72-6.64,8.37-6.26-2.92-3,.36-5.37,4.79.6,6.34-1.28-2.06-3.26.92-5.34,1.75-2,3-1.49a34.16,34.16,0,0,0,8.44,1.6c-3.7,4.3.84,7.81-2.51,11.28s-10.64,6.11-11.8,10.86,6.82,8.41-2,13.21-17.87,8.18-20,14.57-2.48,11.48-8,13.67-8.52,4.26-8.69,6.8c0,0-1.37-9.18,6.13-10.95,0,0-6.57-1-4.92-7.14,1.51-5.58,5.22-1.64,7.18-5.49s-2.54-4.43-.62-7.71,7.6-3.18,6.13-6.69c-.5-1.19-2.88-1.49-6-1" style="fill:#fde302"/><path d="M497.82,283.49a19.47,19.47,0,0,0-11.54,4.63c-1.75,1.5-3.3,3.36-5.47,4.14a13.58,13.58,0,0,1-5.54.3,58.6,58.6,0,0,0-16.15.48c-9.74,1.91-19,8.42-22.08,17.85a36.66,36.66,0,0,1,21.7-.06c2.33.72,4.64,1.68,7.08,1.77,4.34.16,8.3-2.47,11.41-5.5s5.77-6.58,9.33-9.06c4.09-2.85,9.66-4.71,11.06-9.48" style="fill:#fde302"/><path d="M458.48,315.75c-6.36.9-15.6,4.78-18.55,10.51-4.46,8.67-1.17,26.52-10.93,33.93s-30.11,21.3-43.5,20.41-10.79-17.46.3-13.43c-7.6,1.89-3.15,11.45,11.27,5.83s21.38-11.42,6.3-22.88-37.46,10.64-39.23,19.19,8.89,28.09-4.86,41.51-25.94,8.13-25-2,14.72-5.59,14.28-12.5-13.7-.61-12.57-8.61,13.29-6.58,13.64-11.93-11.28-10-7.73-18.45,20.37-5.21,27-10.45,13.69-17.77,17-26.95c0,0-19.15,18.66-23.6,15-2-1.79-5.37-.76-7.3,1.13s-3.09,4.48-4.94,6.46-5,3.28-7.27,1.76c-1.85-1.25-2.24-3.92-1.63-6.07s2-4,3.11-5.93c.44-.77.81-1.82.2-2.46a1.91,1.91,0,0,0-1.73-.33c-2.57.48-4.56,2.44-6.72,3.91s-5.18,2.45-7.3.92a6,6,0,0,1-2.11-4,17,17,0,0,1,3-12.19,39.26,39.26,0,0,1,9.06-9c1.51-1.17,3.13-2.38,3.91-4.13s.37-4.21-1.39-5-3.49.29-5.22.79-4.27-.14-4.2-1.94a3.18,3.18,0,0,1,.57-1.49c3-4.93,7.94-8.36,12.72-11.62a4.34,4.34,0,0,0,1.74-1.79c.81-2-1.48-3.74-2.57-5.6-1.55-2.66-.53-6.2,1.51-8.51s4.88-3.69,7.57-5.19,5.41-3.26,6.86-6c1.43,1.16,1.53,3.38.83,5.07a20.51,20.51,0,0,1-3.17,4.49c-.9,1.14-1.74,2.59-1.31,4,.68,2.22,3.7,2.38,6,2.26a13,13,0,0,1,7,1.12c2.09,1.14,3.61,3.64,2.92,5.92-.52,1.71-2.05,2.86-3.5,3.89l-10.33,7.34c-3.68,2.62-7.83,6.4-6.71,10.78.66,2.6,3.13,4.42,5.73,5.08a22.39,22.39,0,0,0,8,.1c10.57-.69,20,2.24,21.66-5.11s-13.88-6.91-7.85-16.66,24.95-6.71,28.92-16.9-6.61-8.51-7.85-16.66,8.39-9.3,8.39-9.3-8.95-4.78-16.33-1.69S380.81,253.88,372,251.8s-9.52-18.56-27.43-18.86-24.8,26.73-42.19,23.18-20.74-16-20-26.74.2-20.9-5.83-20.11S266,218.73,271,225c-10.16-9-3.09-25.31,10.61-24.69s12.81,36.41,24.47,36.29,11.59-48.23,29.38-46.15,4.22,21.8,14.71,25.79,11.61-8.19,18.65-6.23S374,226.83,384,228.4s18.09-42.72,39.47-40.7c0,0-27.65,2.34-32.35,1.13s.14-6.56-5.22-6.92-12.15,7.56-16.46,4.88-9.28-13.17-15.21-13.87-16.88-2.32-21.18-.51-2.28,7.31-6.09,6.16-10.39-27.88,5.74-27.7,11.36,4.34,11.36,4.34c-4-3-15.29.77-14.12,5.63s6.86,9.13,10.71,5.2,9.4-15.51,17.47-15.57,11.42,21.38,33.44,22.85c0,0-27.07-15.25-17-32.5s23.65-36.38-.19-28.41c7.34-15.94,24.18-13,22.51-1.48s-3,30.88,4.3,29.57,12.3-5.16,14,.34-3.77,16.18,16.12,27.07c0,0-9-12.26-8-27.73s5-17.29,4.19-22.43,1.78,13.57,11.82,19.92,7.95,15.17,11.14,21.06,48.67-3.92,60.41,17.18,9.74,15.29,9.74,15.29l4,11.33s4.34,2.08,4.95,6.31-1.72,7.95-1.27,10.07.93,8.43,1.69,10.57,2.56,6.45.93,8.43-2.86,2.5-3,4,3.65,3.53,2.62,5.55-5.67,4.4-5.67,4.4.9-5.35-.69-8.45a17.13,17.13,0,0,1-1.35-10.21c.51-3.25,3.61-4.84,1.53-9.46s3.65-9.92.49-11.92-3.59,4.54-8.19,6.33-8.21,2.14-6.31-4c1.35,6.66,4.29,3,6,.1s-3.17-1.71-5.13-3.63-.1-7.48-6.35-7.89-8.49,6.3-8.49,6.3-7.45-4.68-11.52-2-2.36,8.51-4.54,9.85-7.42-.79-9.46,3,.85,5.14-.48,7.14-3.85,3.92-2.12,9.42c-5.22-2.44-8.09.36-7.18,4.6s4.5,8.67,4.28,11.94,1.25,3.67,2.46,3.45,7,6.74,6.68,16.28,1,21-2,25.87-1,1.42-1,1.42" style="fill:#fde302"/><path d="M627.72,226.24s6.32-30.68,5.86-30.19-17.75,15.72-17.75,15.72l-5.18-25.33L598,207l-15.22-30.2-5.9,35.12L552,191.13l8.25,31L543,212.46,553.34,240l25.1-9.58,26.92-16.23,15.73,9.68,6,3.06" style="fill:#fde302"/><path d="M626.46,259.64s1.07-4.19,2-5.18,1.62-1.83,1.62-1.83-1.7-2.36-1-4.15,1.65-4.29,1.65-4.29-2.75-8.8-1.56-12.59,6.59-7.86,6.4-10.17-3.68-3.06-3.68-3.06,1,8.71-4.35,5.74-7.57-4.83-7.24-5.73,1.16-3.61,1.16-3.61-2.78,5.44-4,2.76-2.33-4.37-4.61-4.36-7.65-2-6.4-3.88-4.88,4.33-7.53,4.28-4.62-.76-4.6-2.08-4.08-5.22-3.5-6.46-1,3.64-.91,5.55.34,7.27-1.27,5.49-4.58-6.82-3.26-6.79-2.48,3.58-4,5.8-3.24,5.93-5.35,3.69-6.4-7.31-7-5.12,5,9,4,10.15-5.72,1.35-5.85-.19-1.64-8.62-3.05-7,2.12,5.66-.49,7.7-5.9,4.74-6.67,4.81-4.27,1.77-4.36,3.46,0-11.95-3.49-11.2-5.2,1.62-4.18,4.64,3.66,4.39,2.28,5.88-6.81-.16-5.32-3.53c-3.68,4,3.05,7,2,8.68s-7.07,4.93-6.68,1.39c-1.64,6.56,6.41,9.58,7,6.84s-.39-4.62-2.48-3.44c5.31-4.64,8.72-1,6.52,3.15s-1,12-4.34,11.44-7.79-1.08-6.54-4.1c-3,2.35-1.58,6.2,1.53,6.9s5.81,2.84,6.94,1.69,3.62-4.72,5.56-3.84-6.5,6.16-1.57,6.2,8-3.45,10.49-2.66-9.32,2.47-5.71,5.91,4.24,4.29,6.77,3.95,4.9-6.8,4.9-6.8-1.45-1.57.66-5.21-5.76-6.63-2.12-12.69,6.94-6.46,6.94-6.46-6.25,9.23,3.19,10.77c-1.88-6-1.43-9.92,3.43-11.78s12-3.56,13.59-7.67.76-9.37,3-10.33,4.85,11,10,10.74,7.15-.73,6.16-2.79-8-1.88-5.85-6.08,3.52-5.31,4.42-2.7,10,6.37,10.91,8.8,2,8.68-.42,9.62c3.2.14,2.1-7.07,3.67-7.38s1.63.45,1.18,3.23,1.63,6.34,2.16,8.89-.35,3.36-1.12,5.71.45,4.25,0,6.07S626.46,259.64,626.46,259.64Z" style="fill:#fde302"/><path d="M633.71,318.8c-2.2-7.87-6.23-16.22-7.05-24.19-.73-6,2.34-24.87-.2-35,0,0-3.39,13.88-3.6,17.46s-2.21,6.65-4.9,6.8a42.83,42.83,0,0,1-4.69,5.49c-2,1.76-4,1.25-8.1-1.5l-1.6.49-2.32-2.08-8.41,7.83h-.77c-8.39-1.17-16.92-9-19.07-13.94s-1.3-18.82-6-21.66c0,0-4.43,9.72-5.55,12s3.95,1.39,5.07,5c.81,2.58.93,8.09.14,13-2.15,5.69-5.91,14.91-6,21.09a57.92,57.92,0,0,1-9.29,30.78c6.61-4.18,10.41-11.52,13.91-18.5a123.92,123.92,0,0,1-21.74,56.25c3.68.58,6.92-2.34,9.37-5.16a105.34,105.34,0,0,0,19.54-33.46c-2.76,24.33-19.44,46.72-42.13,56.05a89.91,89.91,0,0,0,32.45-12.44c6.33-4,12.27-8.9,16.29-15.14a57.23,57.23,0,0,1-24.36,32,70.58,70.58,0,0,0,53.61-34.48,42.16,42.16,0,0,1-11.08,23.34c16.68-9.53,25.81-28.07,33-45.86a49.42,49.42,0,0,1-8.73,31A61.08,61.08,0,0,0,633.71,318.8Zm-24.37-19.23c-1.45.72-2.11-1.09-3.52-.57s-1.42,1.68-3,2.35-7.07-3.23-7.07-3.23c3.43-4.76,12.06-6.4,17-3.11C612.74,295,610.79,298.87,609.34,299.57Z" style="fill:#fde302"/><circle cx="500.76" cy="170.99" r="11.71" style="fill:#fde302"/><circle cx="511.11" cy="184.17" r="6.82" style="fill:#fde302"/><circle cx="518.8" cy="192.26" r="5.91" style="fill:#fde302"/><circle cx="484.67" cy="164.22" r="9.57" style="fill:#fde302"/></g><g id="bubbles"><circle cx="491.76" cy="432.63" r="2.57" style="fill:#27e4fd"/><circle cx="656.91" cy="239.19" r="3.25" style="fill:#27e4fd"/><circle cx="665.97" cy="204.1" r="7.3" style="fill:#27e4fd"/><circle cx="648.39" cy="264.34" r="10.55" style="fill:#27e4fd"/><circle cx="375.4" cy="904.42" r="10.55" style="fill:#27e4fd"/><circle cx="519.46" cy="319.1" r="2.43" style="fill:#27e4fd"/><circle cx="541.36" cy="299.63" r="2.43" style="fill:#27e4fd"/><circle cx="644.59" cy="186.35" r="4.06" style="fill:#27e4fd"/><circle cx="630.14" cy="158.07" r="4.46" style="fill:#27e4fd"/><circle cx="576.65" cy="136.57" r="5.27" style="fill:#27e4fd"/><circle cx="665.97" cy="140.22" r="8.92" style="fill:#27e4fd"/><circle cx="536.44" cy="121.56" r="4.06" style="fill:#27e4fd"/><circle cx="291.9" cy="173.07" r="5.68" style="fill:#27e4fd"/><circle cx="465.36" cy="128.45" r="2.84" style="fill:#27e4fd"/><circle cx="564.08" cy="95.19" r="1.62" style="fill:#27e4fd"/><circle cx="496.89" cy="110.4" r="20.69" style="fill:#27e4fd"/><circle cx="274.86" cy="247.3" r="4.87" style="fill:#27e4fd"/><circle cx="552.92" cy="105.54" r="3.04" style="fill:#27e4fd"/><circle cx="336.26" cy="709.72" r="7.91" style="fill:#27e4fd"/><circle cx="296.71" cy="748.05" r="10.34" style="fill:#27e4fd"/><circle cx="80.16" cy="517.45" r="10.34" style="fill:#27e4fd"/><circle cx="327.74" cy="741.97" r="1.83" style="fill:#27e4fd"/><circle cx="313.75" cy="727.36" r="3.65" style="fill:#27e4fd"/><circle cx="453.08" cy="696.94" r="4.87" style="fill:#27e4fd"/><circle cx="452.47" cy="672.6" r="3.65" style="fill:#27e4fd"/><circle cx="474.38" cy="704.85" r="4.87" style="fill:#27e4fd"/><circle cx="495.67" cy="729.19" r="4.26" style="fill:#27e4fd"/><circle cx="467.68" cy="723.71" r="3.04" style="fill:#27e4fd"/><circle cx="401.18" cy="432.27" r="1.83" style="fill:#27e4fd"/><circle cx="372.77" cy="493.11" r="4.26" style="fill:#27e4fd"/><circle cx="213.96" cy="233.56" r="4.26" style="fill:#27e4fd"/><circle cx="325.92" cy="499.81" r="5.48" style="fill:#27e4fd"/><circle cx="378.24" cy="470.6" r="3.04" style="fill:#27e4fd"/><circle cx="352.08" cy="477.9" r="2.43" style="fill:#27e4fd"/><circle cx="562.33" cy="800.58" r="3.65" style="fill:#27e4fd"/><circle cx="582.07" cy="792.47" r="3.65" style="fill:#27e4fd"/><circle cx="621.62" cy="778.47" r="3.65" style="fill:#27e4fd"/><circle cx="751.22" cy="654.96" r="9.74" style="fill:#27e4fd"/><circle cx="807.88" cy="634.27" r="1.83" style="fill:#27e4fd"/><circle cx="892.17" cy="636.1" r="3.04" style="fill:#27e4fd"/><circle cx="723.23" cy="685.38" r="3.65" style="fill:#27e4fd"/><circle cx="703.47" cy="728.69" r="6.69" style="fill:#27e4fd"/><circle cx="679.42" cy="767.52" r="5.48" style="fill:#27e4fd"/><circle cx="171.78" cy="398.2" r="4.06" style="fill:#27e4fd"/><circle cx="200.98" cy="356.82" r="7.3" style="fill:#27e4fd"/><circle cx="178.27" cy="334.11" r="5.68" style="fill:#27e4fd"/><circle cx="114.99" cy="437.95" r="2.43" style="fill:#27e4fd"/><circle cx="127.16" cy="502.85" r="7.3" style="fill:#27e4fd"/><circle cx="120.67" cy="631.03" r="3.25" style="fill:#27e4fd"/><circle cx="111.74" cy="566.13" r="3.25" style="fill:#27e4fd"/><circle cx="140.95" cy="687" r="4.87" style="fill:#27e4fd"/><circle cx="174.21" cy="704.04" r="4.87" style="fill:#27e4fd"/><circle cx="177.46" cy="766.51" r="9.74" style="fill:#27e4fd"/><circle cx="95.98" cy="418.88" r="9.74" style="fill:#27e4fd"/><circle cx="262.64" cy="812.75" r="6.49" style="fill:#27e4fd"/><circle cx="217.21" cy="732.43" r="5.68" style="fill:#27e4fd"/><circle cx="110.93" cy="385.22" r="3.25" style="fill:#27e4fd"/><circle cx="183.95" cy="263.53" r="2.43" style="fill:#27e4fd"/><circle cx="152.31" cy="427.4" r="1.62" style="fill:#27e4fd"/><circle cx="154.74" cy="370.61" r="1.62" style="fill:#27e4fd"/><circle cx="211.53" cy="386.03" r="2.43" style="fill:#27e4fd"/><circle cx="204.23" cy="300.85" r="3.25" style="fill:#27e4fd"/><circle cx="258.58" cy="182.4" r="2.43" style="fill:#27e4fd"/><circle cx="419.21" cy="111.01" r="3.25" style="fill:#27e4fd"/><circle cx="309.69" cy="136.97" r="3.25" style="fill:#27e4fd"/><circle cx="632.63" cy="383.59" r="4.06" style="fill:#27e4fd"/><circle cx="871.08" cy="355.2" r="7.3" style="fill:#27e4fd"/><circle cx="849.18" cy="313.83" r="2.43" style="fill:#27e4fd"/><circle cx="820.78" cy="379.54" r="3.25" style="fill:#27e4fd"/><circle cx="901.1" cy="436.33" r="4.06" style="fill:#27e4fd"/><circle cx="837.33" cy="338.13" r="3.25" style="fill:#27e4fd"/><circle cx="604.23" cy="428.21" r="3.25" style="fill:#27e4fd"/><circle cx="901.1" cy="572.16" r="3.25" style="fill:#27e4fd"/><circle cx="831.33" cy="745.41" r="3.25" style="fill:#27e4fd"/><circle cx="791.58" cy="810.31" r="4.06" style="fill:#27e4fd"/><circle cx="731.54" cy="838.71" r="2.43" style="fill:#27e4fd"/><circle cx="720.19" cy="798.15" r="4.06" style="fill:#27e4fd"/><circle cx="757.5" cy="747.85" r="3.25" style="fill:#27e4fd"/><circle cx="778.6" cy="766.51" r="2.43" style="fill:#27e4fd"/><circle cx="802.12" cy="725.13" r="3.25" style="fill:#27e4fd"/><circle cx="677.19" cy="889.82" r="4.87" style="fill:#27e4fd"/><circle cx="748.99" cy="819.24" r="6.49" style="fill:#27e4fd"/><circle cx="811.86" cy="790.84" r="1.62" style="fill:#27e4fd"/><circle cx="754.26" cy="789.22" r="6.49" style="fill:#27e4fd"/><circle cx="369.78" cy="448.09" r="6.49" style="fill:#27e4fd"/><circle cx="678.87" cy="236.35" r="6.49" style="fill:#27e4fd"/><circle cx="867.83" cy="708.91" r="4.87" style="fill:#27e4fd"/><circle cx="460.64" cy="381.97" r="4.87" style="fill:#27e4fd"/><circle cx="904.34" cy="595.33" r="4.06" style="fill:#27e4fd"/><circle cx="918.94" cy="499.6" r="6.49" style="fill:#27e4fd"/><circle cx="743.36" cy="717.02" r="6.49" style="fill:#27e4fd"/><circle cx="747.77" cy="190.27" r="4.87" style="fill:#27e4fd"/><circle cx="552.81" cy="162.53" r="4.87" style="fill:#27e4fd"/><circle cx="895.42" cy="389.27" r="3.25" style="fill:#27e4fd"/><circle cx="820.78" cy="348.91" r="4.06" style="fill:#27e4fd"/><circle cx="313.75" cy="376.9" r="4.87" style="fill:#27e4fd"/><circle cx="243.78" cy="280.16" r="4.87" style="fill:#27e4fd"/><circle cx="194.36" cy="384.16" r="3.65" style="fill:#27e4fd"/><circle cx="186.38" cy="430.05" r="10.95" style="fill:#27e4fd"/><circle cx="243.78" cy="389.27" r="4.87" style="fill:#27e4fd"/><circle cx="658.79" cy="367.78" r="1.83" style="fill:#27e4fd"/><circle cx="140.95" cy="400.63" r="4.26" style="fill:#27e4fd"/><circle cx="509.67" cy="482.77" r="3.04" style="fill:#27e4fd"/><circle cx="530.35" cy="410.97" r="1.83" style="fill:#27e4fd"/><circle cx="664.82" cy="453.57" r="4.26" style="fill:#27e4fd"/><circle cx="757.3" cy="691.47" r="4.87" style="fill:#27e4fd"/><circle cx="781.64" cy="672.6" r="7.3" style="fill:#27e4fd"/><circle cx="833.41" cy="687.82" r="7.3" style="fill:#27e4fd"/><circle cx="801.11" cy="676.86" r="5.48" style="fill:#27e4fd"/><circle cx="795.69" cy="352.56" r="5.48" style="fill:#27e4fd"/><circle cx="864.44" cy="281.38" r="4.26" style="fill:#27e4fd"/><circle cx="684.34" cy="174.29" r="6.69" style="fill:#27e4fd"/><circle cx="238.36" cy="201.06" r="6.69" style="fill:#27e4fd"/><circle cx="720.79" cy="345.87" r="3.04" style="fill:#27e4fd"/><circle cx="437.11" cy="396.57" r="3.04" style="fill:#27e4fd"/><circle cx="711.67" cy="294.15" r="6.08" style="fill:#27e4fd"/><circle cx="656.96" cy="291.72" r="5.48" style="fill:#27e4fd"/><circle cx="690.98" cy="262.51" r="4.87" style="fill:#27e4fd"/><circle cx="457.8" cy="107.77" r="4.87" style="fill:#27e4fd"/><circle cx="720.19" cy="246.09" r="4.87" style="fill:#27e4fd"/><circle cx="734.18" cy="280.77" r="4.87" style="fill:#27e4fd"/><circle cx="527.98" cy="289.89" r="4.87" style="fill:#27e4fd"/><circle cx="547.45" cy="282.59" r="4.87" style="fill:#27e4fd"/><circle cx="641.7" cy="446.87" r="1.83" style="fill:#27e4fd"/><circle cx="849.18" cy="349.72" r="2.43" style="fill:#27e4fd"/><circle cx="698.89" cy="327.01" r="6.08" style="fill:#27e4fd"/><circle cx="310.5" cy="480.34" r="4.26" style="fill:#27e4fd"/><circle cx="286.37" cy="432.27" r="3.65" style="fill:#27e4fd"/><circle cx="153.12" cy="294.76" r="4.87" style="fill:#27e4fd"/><circle cx="145.21" cy="342.83" r="8.52" style="fill:#27e4fd"/><circle cx="416.78" cy="876.84" r="5.68" style="fill:#27e4fd"/><circle cx="471.94" cy="897.12" r="8.11" style="fill:#27e4fd"/><circle cx="711.26" cy="863.45" r="6.49" style="fill:#27e4fd"/><circle cx="821.24" cy="311.8" r="6.49" style="fill:#27e4fd"/><circle cx="428.95" cy="901.99" r="0.81" style="fill:#27e4fd"/><circle cx="533.6" cy="847.63" r="12.17" style="fill:#27e4fd"/><circle cx="522.24" cy="890.63" r="8.11" style="fill:#27e4fd"/><circle cx="299.81" cy="692.53" r="8.11" style="fill:#27e4fd"/><circle cx="579.84" cy="850.88" r="2.43" style="fill:#27e4fd"/><circle cx="516.56" cy="812.75" r="2.43" style="fill:#27e4fd"/><circle cx="569.29" cy="827.35" r="4.06" style="fill:#27e4fd"/><circle cx="599.31" cy="833.84" r="2.43" style="fill:#27e4fd"/><circle cx="315.37" cy="760.02" r="4.87" style="fill:#27e4fd"/><circle cx="662.59" cy="827.35" r="4.87" style="fill:#27e4fd"/><circle cx="586.33" cy="883.73" r="2.43" style="fill:#27e4fd"/><circle cx="556.72" cy="909.69" r="16.23" style="fill:#27e4fd"/><circle cx="674.76" cy="859.4" r="4.06" style="fill:#27e4fd"/><circle cx="622.02" cy="859.4" r="4.87" style="fill:#27e4fd"/><circle cx="660.96" cy="874.81" r="3.25" style="fill:#27e4fd"/><circle cx="507.64" cy="834.65" r="4.87" style="fill:#27e4fd"/><circle cx="557.12" cy="847.63" r="4.87" style="fill:#27e4fd"/><circle cx="501.96" cy="805.45" r="3.25" style="fill:#27e4fd"/><circle cx="465.45" cy="852.5" r="4.87" style="fill:#27e4fd"/><circle cx="499.52" cy="876.03" r="3.25" style="fill:#27e4fd"/><circle cx="372.16" cy="866.29" r="4.87" style="fill:#27e4fd"/><circle cx="594.44" cy="858.18" r="8.92" style="fill:#27e4fd"/><circle cx="609.86" cy="803.01" r="2.43" style="fill:#27e4fd"/><circle cx="619.59" cy="820.05" r="4.06" style="fill:#27e4fd"/><circle cx="641.49" cy="845.2" r="3.25" style="fill:#27e4fd"/><circle cx="643.93" cy="799.77" r="6.49" style="fill:#27e4fd"/><circle cx="232.62" cy="420.91" r="6.49" style="fill:#27e4fd"/><circle cx="533.35" cy="275.13" r="2.43" style="fill:#27e4fd"/><circle cx="531.16" cy="92.35" r="5.68" style="fill:#27e4fd"/><circle cx="656.91" cy="175.1" r="3.25" style="fill:#27e4fd"/><circle cx="548.66" cy="139" r="8.11" style="fill:#27e4fd"/><circle cx="637.44" cy="111.01" r="5.68" style="fill:#27e4fd"/><circle cx="626.08" cy="126.43" r="8.11" style="fill:#27e4fd"/><circle cx="590.39" cy="119.13" r="4.06" style="fill:#27e4fd"/><circle cx="603.8" cy="152.98" r="14.6" style="fill:#27e4fd"/><circle cx="452.47" cy="89.11" r="7.3" style="fill:#27e4fd"/><circle cx="316.24" cy="274.08" r="8.92" style="fill:#27e4fd"/></g></svg>