<?xml version="1.0" encoding="utf-8"?>
<!-- Generator: Adobe Illustrator 19.2.1, SVG Export Plug-In . SVG Version: 6.00 Build 0)  -->
<!DOCTYPE svg PUBLIC "-//W3C//DTD SVG 1.1//EN" "http://www.w3.org/Graphics/SVG/1.1/DTD/svg11.dtd">
<svg version="1.1" xmlns="http://www.w3.org/2000/svg" xmlns:xlink="http://www.w3.org/1999/xlink" x="0px" y="0px"
	 viewBox="0 0 426.199 426.199" enable-background="new 0 0 426.199 426.199" xml:space="preserve">
<symbol  id="Neues_Symbol_2_42_" viewBox="-10.024 -17.4 20.048 34.198">
	<path fill="#03B1E3" d="M0-17.4c-5.536,0-10.024,4.488-10.024,10.023C-10.024,2.728,0,3.752,0,16.798
		C0,3.752,10.024,2.728,10.024-7.377C10.024-12.912,5.535-17.4,0-17.4z"/>
</symbol>
<g id="Ebene_24" display="none">
	<rect x="-4635.93" y="-983.302" display="inline" fill="#003553" width="8152.37" height="3989.647"/>
</g>
<g id="grid" display="none">
	<g display="inline">
		<rect x="32.199" y="32.199" fill="none" stroke="#030713" stroke-miterlimit="10" width="361.801" height="361.799"/>
		<circle fill="none" stroke="#030713" stroke-miterlimit="10" cx="213.1" cy="213.098" r="180.9"/>
		
			<rect x="85.185" y="85.183" transform="matrix(0.7071 -0.7071 0.7071 0.7071 -88.2675 213.098)" fill="none" stroke="#030713" stroke-miterlimit="10" width="255.83" height="255.83"/>
	</g>
</g>
<g id="Icons">
	<g>
		<path fill="#F2E500" stroke="#F2E500" stroke-width="0.951" stroke-miterlimit="10" d="M213.1,207.34
			c-53.54,0-96.945,59.301-96.945,5.761c0-53.541,43.404-96.943,96.944-96.943c53.539,0,96.944,43.402,96.944,96.943
			C310.043,266.64,266.638,207.34,213.1,207.34z"/>
		
			<line fill="#F2E500" stroke="#F2E500" stroke-width="20" stroke-linecap="round" stroke-miterlimit="10" x1="361.71" y1="127.299" x2="320.869" y2="150.877"/>
		
			<line fill="#F2E500" stroke="#F2E500" stroke-width="20" stroke-linecap="round" stroke-miterlimit="10" x1="213.1" y1="41.528" x2="213.098" y2="88.657"/>
		
			<line fill="#F2E500" stroke="#F2E500" stroke-width="20" stroke-linecap="round" stroke-miterlimit="10" x1="64.495" y1="127.303" x2="105.327" y2="150.879"/>
		
			<line fill="#F2E500" stroke="#F2E500" stroke-width="20" stroke-linecap="round" stroke-miterlimit="10" x1="275.197" y1="105.541" x2="289.564" y2="80.659"/>
		
			<line fill="#F2E500" stroke="#F2E500" stroke-width="20" stroke-linecap="round" stroke-miterlimit="10" x1="151" y1="105.541" x2="136.633" y2="80.659"/>
	</g>
	<g id="Neues_Symbol_1">
	</g>
	<g>
		<path fill="#FFFFFF" d="M335.533,212.914c-2.276,0-4.494,0.245-6.635,0.701c0.017-0.378,0.029-0.759,0.029-1.141
			c0-14.107-11.436-25.542-25.542-25.542c-0.038,0-0.076,0.003-0.114,0.003c-5.877-17.408-22.329-29.948-41.721-29.948
			c-8.379,0-16.211,2.341-22.88,6.403c-0.099-0.145-0.199-0.291-0.3-0.435c-6.451-9.2-17.135-15.216-29.225-15.216
			c-4.088,0-8.012,0.697-11.669,1.963c-6.918-9.965-18.437-16.495-31.488-16.495c-7.318,0-14.156,2.051-19.971,5.61
			c-11.001,6.733-18.341,18.86-18.341,32.702c0,1.103,0.058,2.193,0.149,3.273c-7.817,3.705-13.748,10.744-15.95,19.282
			c-2.256-1.18-4.817-1.857-7.539-1.857c-8.998,0-16.294,7.294-16.294,16.294c0,2.044,0.393,3.993,1.081,5.797
			c-2.201,0.623-4.281,1.531-6.191,2.695c-2.041-0.552-4.169-0.705-6.266-0.423c-4.479,0.6-8.366,3.072-10.849,6.603
			c-1.812,2.578-2.876,5.719-2.876,9.108c0,1.169,0.135,2.306,0.36,3.417c-1.462-0.968-3.212-1.535-5.097-1.535
			c-5.107,0-9.248,4.141-9.248,9.248c0,6.354,6.534,10.885,12.49,8.652c2.338,3.72,6.465,6.201,11.183,6.201
			c2.225,0,4.318-0.556,6.158-1.527c4.491,4.221,10.532,6.811,17.182,6.811c7.427,0,14.098-3.228,18.694-8.354
			c4.351,5.073,10.59,8.481,17.63,9.124c3.315,0.303,6.677-0.023,9.871-0.959c6.765,14.666,21.589,24.849,38.798,24.849
			c12.566,0,23.864-5.427,31.68-14.064c4.522,2.235,9.613,3.496,14.998,3.496c2.688,0,5.302-0.312,7.808-0.904
			c7.758-1.83,14.486-6.327,19.168-12.466c3.03,2.301,6.797,3.682,10.896,3.682c3.374,0,6.521-0.943,9.223-2.554
			c3.049,6.7,9.798,11.361,17.64,11.361c8.332,0,15.434-5.26,18.171-12.639c5.804,7.423,14.834,12.199,24.986,12.199
			c17.421,0,31.561-14.05,31.706-31.436c0.068-7.098-2.302-14.109-6.657-19.712C354.781,217.716,345.718,212.914,335.533,212.914z"
			/>
	</g>
	
		<use xlink:href="#Neues_Symbol_2_42_"  width="20.048" height="34.198" id="XMLID_17_" x="-10.024" y="-17.4" transform="matrix(1.4577 -0.4145 -0.4145 -1.4577 133.0157 309.5878)" overflow="visible"/>
	
		<use xlink:href="#Neues_Symbol_2_42_"  width="20.048" height="34.198" id="XMLID_16_" x="-10.024" y="-17.4" transform="matrix(1.1536 -0.328 -0.328 -1.1536 344.3047 308.5478)" overflow="visible"/>
	
		<use xlink:href="#Neues_Symbol_2_42_"  width="20.048" height="34.198" id="XMLID_15_" x="-10.024" y="-17.4" transform="matrix(1.6959 -0.4821 -0.4821 -1.6959 168.462 359.206)" overflow="visible"/>
	
		<use xlink:href="#Neues_Symbol_2_42_"  width="20.048" height="34.198" id="XMLID_14_" x="-10.024" y="-17.4" transform="matrix(1.0622 -0.302 -0.302 -1.0622 104.4659 339.0957)" overflow="visible"/>
	
		<use xlink:href="#Neues_Symbol_2_42_"  width="20.048" height="34.198" id="XMLID_13_" x="-10.024" y="-17.4" transform="matrix(1.2113 -0.3443 -0.3443 -1.2113 196.419 328.1845)" overflow="visible"/>
	
		<use xlink:href="#Neues_Symbol_2_42_"  width="20.048" height="34.198" id="XMLID_12_" x="-10.024" y="-17.4" transform="matrix(1.5965 -0.4539 -0.4539 -1.5965 301.4844 317.4248)" overflow="visible"/>
	
		<use xlink:href="#Neues_Symbol_2_42_"  width="20.048" height="34.198" id="XMLID_11_" x="-10.024" y="-17.4" transform="matrix(1.2548 -0.3566 -0.3566 -1.2548 270.6797 359.0878)" overflow="visible"/>
	<g id="Neues_Symbol_2_36_">
	</g>
	<g id="Neues_Symbol_2_35_">
	</g>
	<g id="Neues_Symbol_2_34_">
	</g>
	<g id="Neues_Symbol_2_33_">
	</g>
	<g id="Neues_Symbol_2_32_">
	</g>
	<g id="Neues_Symbol_2_31_">
	</g>
	<g id="Neues_Symbol_2_30_">
	</g>
	<g id="Neues_Symbol_2_3_">
	</g>
	<g id="Neues_Symbol_2_11_">
	</g>
	<g id="Ebene_33">
	</g>
	<g id="Neues_Symbol_2_10_">
	</g>
	<g id="Neues_Symbol_2_9_">
	</g>
	<g id="Neues_Symbol_2_8_">
	</g>
	<g id="Neues_Symbol_2_7_">
	</g>
	<g id="Neues_Symbol_2_6_">
	</g>
	<g id="Neues_Symbol_2_5_">
	</g>
	<g id="Neues_Symbol_2_4_">
	</g>
	<g id="Neues_Symbol_2_2_">
	</g>
	<g id="Neues_Symbol_2_1_">
	</g>
	<g id="Neues_Symbol_2">
	</g>
	<g id="Neues_Symbol_2_21_">
	</g>
	<g id="Neues_Symbol_2_20_">
	</g>
	<g id="Neues_Symbol_2_19_">
	</g>
	<g id="Neues_Symbol_2_29_">
	</g>
	<g id="Neues_Symbol_2_28_">
	</g>
	<g id="Neues_Symbol_2_27_">
	</g>
	<g id="Neues_Symbol_2_26_">
	</g>
	<g id="Neues_Symbol_2_25_">
	</g>
	<g id="Neues_Symbol_2_24_">
	</g>
	<g id="Neues_Symbol_2_23_">
	</g>
	<g id="Neues_Symbol_2_22_">
	</g>
	<g id="Neues_Symbol_1_20_">
	</g>
	<g id="Neues_Symbol_1_11_">
	</g>
	<g id="Neues_Symbol_1_10_">
	</g>
	<g id="Neues_Symbol_1_9_">
	</g>
	<g id="Neues_Symbol_1_8_">
	</g>
	<g id="Neues_Symbol_1_7_">
	</g>
	<g id="Neues_Symbol_1_6_">
	</g>
	<g id="Neues_Symbol_1_5_">
	</g>
	<g id="Neues_Symbol_1_4_">
	</g>
	<g id="Neues_Symbol_1_3_">
	</g>
	<g id="Neues_Symbol_1_2_">
	</g>
	<g id="Neues_Symbol_1_1_">
	</g>
	<g id="Neues_Symbol_2_18_">
	</g>
	<g id="Neues_Symbol_2_17_">
	</g>
	<g id="Neues_Symbol_2_16_">
	</g>
	<g id="Neues_Symbol_2_15_">
	</g>
	<g id="Neues_Symbol_2_14_">
	</g>
	<g id="Neues_Symbol_2_13_">
	</g>
	<g id="Neues_Symbol_2_12_">
	</g>
	<g id="Neues_Symbol_2_41_">
	</g>
	<g id="Neues_Symbol_2_40_">
	</g>
	<g id="Neues_Symbol_2_39_">
	</g>
	<g id="Neues_Symbol_2_38_">
	</g>
	<g id="Neues_Symbol_2_37_">
	</g>
</g>
<g id="Ebene_34">
</g>
</svg>
