<?xml version="1.0" encoding="utf-8"?>
<!-- Generator: Adobe Illustrator 19.2.1, SVG Export Plug-In . SVG Version: 6.00 Build 0)  -->
<!DOCTYPE svg PUBLIC "-//W3C//DTD SVG 1.1//EN" "http://www.w3.org/Graphics/SVG/1.1/DTD/svg11.dtd">
<svg version="1.1" xmlns="http://www.w3.org/2000/svg" xmlns:xlink="http://www.w3.org/1999/xlink" x="0px" y="0px"
	 viewBox="0 0 426.199 426.199" enable-background="new 0 0 426.199 426.199" xml:space="preserve">
<g id="Ebene_24" display="none">
	<rect x="-745.227" y="-983.302" display="inline" fill="#003553" width="8152.37" height="3989.647"/>
	<text transform="matrix(1 0 0 1 64.9995 360)" display="inline" font-family="'MyriadPro-Regular'" font-size="12px">#003453</text>
</g>
<g id="grid" display="none">
	<g display="inline">
		<rect x="32.199" y="32.199" fill="none" stroke="#030713" stroke-miterlimit="10" width="361.801" height="361.799"/>
		<circle fill="none" stroke="#030713" stroke-miterlimit="10" cx="213.099" cy="213.098" r="180.9"/>
		
			<rect x="85.184" y="85.183" transform="matrix(0.7071 -0.7071 0.7071 0.7071 -88.2677 213.097)" fill="none" stroke="#030713" stroke-miterlimit="10" width="255.83" height="255.83"/>
	</g>
</g>
<g id="Icons">
	<g id="Neues_Symbol_1">
	</g>
	<g>
		<circle fill="#F2E500" stroke="#F2E500" stroke-width="0.951" stroke-miterlimit="10" cx="213.1" cy="213.1" r="96.943"/>
		
			<line fill="#F2E500" stroke="#F2E500" stroke-width="20" stroke-linecap="round" stroke-miterlimit="10" x1="213.1" y1="384.673" x2="213.099" y2="337.542"/>
		
			<line fill="#F2E500" stroke="#F2E500" stroke-width="20" stroke-linecap="round" stroke-miterlimit="10" x1="361.711" y1="298.896" x2="320.871" y2="275.321"/>
		
			<line fill="#F2E500" stroke="#F2E500" stroke-width="20" stroke-linecap="round" stroke-miterlimit="10" x1="361.711" y1="127.3" x2="320.871" y2="150.878"/>
		
			<line fill="#F2E500" stroke="#F2E500" stroke-width="20" stroke-linecap="round" stroke-miterlimit="10" x1="105.329" y1="275.323" x2="64.497" y2="298.896"/>
		
			<line fill="#F2E500" stroke="#F2E500" stroke-width="20" stroke-linecap="round" stroke-miterlimit="10" x1="213.101" y1="41.527" x2="213.099" y2="88.656"/>
		
			<line fill="#F2E500" stroke="#F2E500" stroke-width="20" stroke-linecap="round" stroke-miterlimit="10" x1="64.497" y1="127.303" x2="105.329" y2="150.879"/>
		
			<line fill="#F2E500" stroke="#F2E500" stroke-width="20" stroke-linecap="round" stroke-miterlimit="10" x1="88.903" y1="213.1" x2="60.194" y2="213.1"/>
		
			<line fill="#F2E500" stroke="#F2E500" stroke-width="20" stroke-linecap="round" stroke-miterlimit="10" x1="151.001" y1="320.657" x2="136.635" y2="345.542"/>
		
			<line fill="#F2E500" stroke="#F2E500" stroke-width="20" stroke-linecap="round" stroke-miterlimit="10" x1="275.199" y1="320.657" x2="289.565" y2="345.541"/>
		
			<line fill="#F2E500" stroke="#F2E500" stroke-width="20" stroke-linecap="round" stroke-miterlimit="10" x1="337.296" y1="213.1" x2="366.006" y2="213.1"/>
		
			<line fill="#F2E500" stroke="#F2E500" stroke-width="20" stroke-linecap="round" stroke-miterlimit="10" x1="275.199" y1="105.542" x2="289.565" y2="80.658"/>
		
			<line fill="#F2E500" stroke="#F2E500" stroke-width="20" stroke-linecap="round" stroke-miterlimit="10" x1="151.001" y1="105.542" x2="136.635" y2="80.658"/>
	</g>
	<g>
		<path fill="#FFFFFF" d="M122.194,287.71c3.706,4.468,8.925,7.728,15.069,8.91c4.676,0.899,9.3,0.483,13.49-0.989
			c5.607-1.971,10.438-5.832,13.578-10.964c3.005,3.261,6.832,5.808,11.239,7.282c9.255,3.1,19.67,0.88,26.86-5.717
			c1.496,0.634,3.078,1.124,4.738,1.443c8.903,1.715,17.6-1.854,22.85-8.517c2.245-2.849,3.86-6.262,4.592-10.069
			c1.458-7.573-0.907-14.995-5.745-20.276c-3.283-3.582-7.704-6.179-12.842-7.167c-1.817-0.35-3.626-0.473-5.398-0.4
			c0.618-1.784,0.97-3.692,0.97-5.687c0-9.608-7.788-17.397-17.396-17.397c-4.015,0-7.702,1.374-10.646,3.659
			c-4.774-2.006-10.054-2.725-15.194-2.098c-5.23,0.639-10.041,2.633-14.075,5.616c-2.327-1.468-4.958-2.54-7.822-3.092
			c-5.793-1.114-11.496,0.08-16.157,2.938c-3.545-6.759-10.018-11.902-18.096-13.458c-0.305-0.058-0.608-0.104-0.913-0.15
			c-0.397-0.45-0.812-0.886-1.245-1.304c-3.062-2.961-6.986-5.098-11.481-5.962c-12.319-2.372-24.227,5.695-26.598,18.014
			c-1.004,5.218-0.129,10.359,2.141,14.736c-3.167,4.186-5.452,9.142-6.511,14.645c-0.543,2.821-0.734,5.628-0.605,8.376
			c0.597,12.703,8.043,24.145,19.32,29.871c2.885,1.465,6.021,2.556,9.356,3.197C105.266,294.997,114.697,292.782,122.194,287.71z"
			/>
	</g>
	<g id="Neues_Symbol_2_36_">
	</g>
	<g id="Neues_Symbol_2_35_">
	</g>
	<g id="Neues_Symbol_2_34_">
	</g>
	<g id="Neues_Symbol_2_33_">
	</g>
	<g id="Neues_Symbol_2_32_">
	</g>
	<g id="Neues_Symbol_2_31_">
	</g>
	<g id="Neues_Symbol_2_30_">
	</g>
	<g id="Neues_Symbol_2_3_">
	</g>
	<g id="Neues_Symbol_2_11_">
	</g>
	<g id="Ebene_33">
	</g>
	<g id="Neues_Symbol_2_10_">
	</g>
	<g id="Neues_Symbol_2_9_">
	</g>
	<g id="Neues_Symbol_2_8_">
	</g>
	<g id="Neues_Symbol_2_7_">
	</g>
	<g id="Neues_Symbol_2_6_">
	</g>
	<g id="Neues_Symbol_2_5_">
	</g>
	<g id="Neues_Symbol_2_4_">
	</g>
	<g id="Neues_Symbol_2_2_">
	</g>
	<g id="Neues_Symbol_2_1_">
	</g>
	<g id="Neues_Symbol_2">
	</g>
	<g id="Neues_Symbol_2_21_">
	</g>
	<g id="Neues_Symbol_2_20_">
	</g>
	<g id="Neues_Symbol_2_19_">
	</g>
	<g id="Neues_Symbol_2_29_">
	</g>
	<g id="Neues_Symbol_2_28_">
	</g>
	<g id="Neues_Symbol_2_27_">
	</g>
	<g id="Neues_Symbol_2_26_">
	</g>
	<g id="Neues_Symbol_2_25_">
	</g>
	<g id="Neues_Symbol_2_24_">
	</g>
	<g id="Neues_Symbol_2_23_">
	</g>
	<g id="Neues_Symbol_2_22_">
	</g>
	<g id="Neues_Symbol_1_20_">
	</g>
	<g id="Neues_Symbol_1_11_">
	</g>
	<g id="Neues_Symbol_1_10_">
	</g>
	<g id="Neues_Symbol_1_9_">
	</g>
	<g id="Neues_Symbol_1_8_">
	</g>
	<g id="Neues_Symbol_1_7_">
	</g>
	<g id="Neues_Symbol_1_6_">
	</g>
	<g id="Neues_Symbol_1_5_">
	</g>
	<g id="Neues_Symbol_1_4_">
	</g>
	<g id="Neues_Symbol_1_3_">
	</g>
	<g id="Neues_Symbol_1_2_">
	</g>
	<g id="Neues_Symbol_1_1_">
	</g>
	<g id="Neues_Symbol_2_18_">
	</g>
	<g id="Neues_Symbol_2_17_">
	</g>
	<g id="Neues_Symbol_2_16_">
	</g>
	<g id="Neues_Symbol_2_15_">
	</g>
	<g id="Neues_Symbol_2_14_">
	</g>
	<g id="Neues_Symbol_2_13_">
	</g>
	<g id="Neues_Symbol_2_12_">
	</g>
	<g id="Neues_Symbol_2_41_">
	</g>
	<g id="Neues_Symbol_2_40_">
	</g>
	<g id="Neues_Symbol_2_39_">
	</g>
	<g id="Neues_Symbol_2_38_">
	</g>
	<g id="Neues_Symbol_2_37_">
	</g>
</g>
<g id="Ebene_34">
</g>
</svg>
