<?xml version="1.0" encoding="utf-8"?>
<!-- Generator: Adobe Illustrator 19.2.1, SVG Export Plug-In . SVG Version: 6.00 Build 0)  -->
<!DOCTYPE svg PUBLIC "-//W3C//DTD SVG 1.1//EN" "http://www.w3.org/Graphics/SVG/1.1/DTD/svg11.dtd">
<svg version="1.1" xmlns="http://www.w3.org/2000/svg" xmlns:xlink="http://www.w3.org/1999/xlink" x="0px" y="0px"
	 viewBox="0 0 426.199 426.199" enable-background="new 0 0 426.199 426.199" xml:space="preserve">
<g id="Ebene_24" display="none">
	<rect x="-1231.565" y="-983.302" display="inline" fill="#003553" width="8152.37" height="3989.647"/>
</g>
<g id="grid" display="none">
	<g display="inline">
		<rect x="32.199" y="32.199" fill="none" stroke="#030713" stroke-miterlimit="10" width="361.801" height="361.799"/>
		<circle fill="none" stroke="#030713" stroke-miterlimit="10" cx="213.1" cy="213.098" r="180.9"/>
		
			<rect x="85.185" y="85.183" transform="matrix(0.7071 -0.7071 0.7071 0.7071 -88.2676 213.0979)" fill="none" stroke="#030713" stroke-miterlimit="10" width="255.83" height="255.83"/>
	</g>
</g>
<g id="Icons">
	<g id="Neues_Symbol_1">
	</g>
	<g>
		<circle fill="#F2E500" stroke="#F2E500" stroke-width="0.951" stroke-miterlimit="10" cx="213.101" cy="213.1" r="96.944"/>
		
			<line fill="#F2E500" stroke="#F2E500" stroke-width="20" stroke-linecap="round" stroke-miterlimit="10" x1="361.712" y1="127.3" x2="320.871" y2="150.878"/>
		
			<line fill="#F2E500" stroke="#F2E500" stroke-width="20" stroke-linecap="round" stroke-miterlimit="10" x1="213.102" y1="41.527" x2="213.1" y2="88.656"/>
		
			<line fill="#F2E500" stroke="#F2E500" stroke-width="20" stroke-linecap="round" stroke-miterlimit="10" x1="64.497" y1="127.303" x2="105.329" y2="150.879"/>
		
			<line fill="#F2E500" stroke="#F2E500" stroke-width="20" stroke-linecap="round" stroke-miterlimit="10" x1="88.903" y1="213.101" x2="60.194" y2="213.1"/>
		
			<line fill="#F2E500" stroke="#F2E500" stroke-width="20" stroke-linecap="round" stroke-miterlimit="10" x1="275.199" y1="105.542" x2="289.566" y2="80.658"/>
		
			<line fill="#F2E500" stroke="#F2E500" stroke-width="20" stroke-linecap="round" stroke-miterlimit="10" x1="151.002" y1="105.542" x2="136.635" y2="80.658"/>
	</g>
	<g>
		<g>
			<path fill="#FFFFFF" d="M329.826,241.185c1.006-2.785,1.814-5.678,2.391-8.678c5.95-30.93-14.298-60.826-45.228-66.777
				c-0.139-0.027-0.278-0.053-0.418-0.078c-26.845-4.961-52.833,9.777-62.969,34.053c-15.214-0.539-29.756,4.031-41.673,12.375
				c-6.485,4.541-12.194,10.199-16.81,16.762c-5.335-4.471-11.845-7.693-19.167-9.102c-21.081-4.057-41.51,8.293-48.129,28.117
				c-0.696,0.465-1.38,0.949-2.055,1.443c-12.652-1.012-24.626,4.557-32.11,14.131c-3.32,4.246-5.757,9.281-6.977,14.879
				c-0.065,0.301-0.127,0.604-0.186,0.906c-3.296,17.127,5.786,33.758,20.986,40.684c7.521,16.324,22.521,28.914,41.516,32.568
				c8.663,1.666,17.245,1.303,25.256-0.762c6.447-1.66,12.524-4.422,17.974-8.109c6.042,7.285,14.55,12.598,24.568,14.527
				c14.67,2.82,29.02-2.303,38.626-12.355c1.028-1.076,2.002-2.209,2.917-3.395c6.753,4.43,14.458,7.65,22.88,9.271
				c16.449,3.164,32.63-0.32,45.791-8.557c0.263,0.055,0.521,0.123,0.785,0.172c25.488,4.904,50.236-9.039,59.852-32.082
				c1.401-3.358,2.48-6.906,3.194-10.619c0.867-4.504,1.145-8.984,0.887-13.361C360.554,267.188,348.206,249.331,329.826,241.185z"
				/>
		</g>
	</g>
	<g id="Neues_Symbol_2_36_">
	</g>
	<g id="Neues_Symbol_2_35_">
	</g>
	<g id="Neues_Symbol_2_34_">
	</g>
	<g id="Neues_Symbol_2_33_">
	</g>
	<g id="Neues_Symbol_2_32_">
	</g>
	<g id="Neues_Symbol_2_31_">
	</g>
	<g id="Neues_Symbol_2_30_">
	</g>
	<g id="Neues_Symbol_2_3_">
	</g>
	<g id="Neues_Symbol_2_11_">
	</g>
	<g id="Ebene_33">
	</g>
	<g id="Neues_Symbol_2_10_">
	</g>
	<g id="Neues_Symbol_2_9_">
	</g>
	<g id="Neues_Symbol_2_8_">
	</g>
	<g id="Neues_Symbol_2_7_">
	</g>
	<g id="Neues_Symbol_2_6_">
	</g>
	<g id="Neues_Symbol_2_5_">
	</g>
	<g id="Neues_Symbol_2_4_">
	</g>
	<g id="Neues_Symbol_2_2_">
	</g>
	<g id="Neues_Symbol_2_1_">
	</g>
	<g id="Neues_Symbol_2">
	</g>
	<g id="Neues_Symbol_2_21_">
	</g>
	<g id="Neues_Symbol_2_20_">
	</g>
	<g id="Neues_Symbol_2_19_">
	</g>
	<g id="Neues_Symbol_2_29_">
	</g>
	<g id="Neues_Symbol_2_28_">
	</g>
	<g id="Neues_Symbol_2_27_">
	</g>
	<g id="Neues_Symbol_2_26_">
	</g>
	<g id="Neues_Symbol_2_25_">
	</g>
	<g id="Neues_Symbol_2_24_">
	</g>
	<g id="Neues_Symbol_2_23_">
	</g>
	<g id="Neues_Symbol_2_22_">
	</g>
	<g id="Neues_Symbol_1_20_">
	</g>
	<g id="Neues_Symbol_1_11_">
	</g>
	<g id="Neues_Symbol_1_10_">
	</g>
	<g id="Neues_Symbol_1_9_">
	</g>
	<g id="Neues_Symbol_1_8_">
	</g>
	<g id="Neues_Symbol_1_7_">
	</g>
	<g id="Neues_Symbol_1_6_">
	</g>
	<g id="Neues_Symbol_1_5_">
	</g>
	<g id="Neues_Symbol_1_4_">
	</g>
	<g id="Neues_Symbol_1_3_">
	</g>
	<g id="Neues_Symbol_1_2_">
	</g>
	<g id="Neues_Symbol_1_1_">
	</g>
	<g id="Neues_Symbol_2_18_">
	</g>
	<g id="Neues_Symbol_2_17_">
	</g>
	<g id="Neues_Symbol_2_16_">
	</g>
	<g id="Neues_Symbol_2_15_">
	</g>
	<g id="Neues_Symbol_2_14_">
	</g>
	<g id="Neues_Symbol_2_13_">
	</g>
	<g id="Neues_Symbol_2_12_">
	</g>
	<g id="Neues_Symbol_2_41_">
	</g>
	<g id="Neues_Symbol_2_40_">
	</g>
	<g id="Neues_Symbol_2_39_">
	</g>
	<g id="Neues_Symbol_2_38_">
	</g>
	<g id="Neues_Symbol_2_37_">
	</g>
</g>
<g id="Ebene_34">
</g>
</svg>
