<svg id="Ebene_1" data-name="Ebene 1" xmlns="http://www.w3.org/2000/svg" viewBox="0 0 512 512"><defs><style>.cls-1{fill:#55b900;}.cls-2{fill:#ff6244;}.cls-3{fill:#fff;}.cls-4{fill:#0071b7;}</style></defs><title>kanal-offen</title><circle class="cls-1" cx="256" cy="255.92" r="123"/><path class="cls-2" d="M235.52,194.6h0Z"/><path class="cls-3" d="M240.08,268.56l0,0Z"/><path id="path20" class="cls-3" d="M326.15,320.82h0l0-21.43h0a79.19,79.19,0,0,0-10.76-39.7c-13.38-22.88-37.27-37-63.21-37.34h0l-19.51-.2,6-27.35h0a4,4,0,0,0-2-4.37,3.65,3.65,0,0,0-3.84.2h0L171.41,232h0a4.93,4.93,0,0,0-2,3.86,4.53,4.53,0,0,0,2,4h0L231,281.57h0a4.4,4.4,0,0,0,5.35-.15,4.73,4.73,0,0,0,1.65-4.77h0l-5.93-27.19,18.87.14h0a45.79,45.79,0,0,1,30.13,11.75A48.75,48.75,0,0,1,297.24,298h0l-.1,22.94,29-.15"/><path class="cls-4" d="M158.31,139.61q7.11,6.87,8.09,12.62t-4.75,11.69q-10.2,10.58-22.75-.62c-.46-.44-.54-.87-.23-1.28l3.18-4.81a.77.77,0,0,1,1.35-.16c3,2.66,5.59,4.09,7.68,4.28a6.91,6.91,0,0,0,5.73-2.41c1.73-1.8,2.46-3.65,2.18-5.57s-2-4.41-5.19-7.48a36.64,36.64,0,0,0-3.65-3.13,10.3,10.3,0,0,0-3.19-1.61,7.49,7.49,0,0,0-3.13-.15,14.17,14.17,0,0,0-3.47,1.12l-3.84,1.76a23.26,23.26,0,0,1-5.91,2,13,13,0,0,1-5.06,0,14,14,0,0,1-4.78-2.09,35.92,35.92,0,0,1-5.1-4.19q-12.15-11.73-2-22.23,5.13-5.32,10.4-5.11t11.06,5.27a.93.93,0,0,1,.16,1.36L132,123.37a.72.72,0,0,1-.57.52.88.88,0,0,1-.71-.3q-3.66-3.25-6.52-3.68c-1.9-.29-3.72.47-5.46,2.26a6.35,6.35,0,0,0-2.11,5.44q.42,2.8,4,6.27a22.51,22.51,0,0,0,3.3,2.73,9,9,0,0,0,2.94,1.31,6.88,6.88,0,0,0,3,0,16.82,16.82,0,0,0,3.47-1.25l3.84-1.76a25,25,0,0,1,5.7-1.9,12.87,12.87,0,0,1,5.1,0,15.1,15.1,0,0,1,5,2.16A36.25,36.25,0,0,1,158.31,139.61Z"/><path class="cls-4" d="M170.52,142.5a18.94,18.94,0,0,1-1.65-1.62,33.7,33.7,0,0,1-2.35-3q-1.46-2-3.75-5.59t-6-9.39q-3.69-5.85-5.9-9.45c-1.47-2.4-2.61-4.32-3.42-5.78a32.39,32.39,0,0,1-1.67-3.38c-.31-.78-.57-1.53-.78-2.23a13.82,13.82,0,0,1,.43-8.67,15.07,15.07,0,0,1,6.3-6.92Q157.2,83,162.26,84c3.37.68,6.58,3,9.62,7a.93.93,0,0,1,0,1.38l-4.06,3.81c-.53.49-1,.46-1.3-.08q-5.23-7-10.75-3.55-4.3,2.72-3.12,7.3c.13.44.31,1,.55,1.58a22.78,22.78,0,0,0,1.44,2.84q1.1,1.92,3.18,5.31t5.67,9.08q3.65,5.76,5.78,9.07c1.42,2.2,2.56,3.91,3.39,5.12a24.25,24.25,0,0,0,1.94,2.53c.45.47.85.86,1.19,1.17q3.63,3,7.93.34,5.52-3.48,1.43-11.23c-.34-.54-.18-1,.49-1.22l5.19-2a.93.93,0,0,1,1.26.56c2.29,4.47,3,8.36,2.16,11.7s-3.09,6.14-6.72,8.43a15,15,0,0,1-9,2.7A13.8,13.8,0,0,1,170.52,142.5Z"/><path class="cls-4" d="M182.77,72.16a.85.85,0,0,1,.63-1.2L189,69.21a.85.85,0,0,1,1.2.63l7.95,25.48a.52.52,0,0,0,.73.38l13.38-4.18a.51.51,0,0,0,.37-.72l-8-25.48a.85.85,0,0,1,.63-1.2l5.59-1.74a.84.84,0,0,1,1.2.62L231,123.48a.85.85,0,0,1-.63,1.21l-5.59,1.74a.86.86,0,0,1-1.21-.63l-8.44-27a.51.51,0,0,0-.72-.38L201,102.57a.51.51,0,0,0-.38.72l8.45,27a.85.85,0,0,1-.63,1.21l-5.59,1.74a.86.86,0,0,1-1.21-.63Z"/><path class="cls-4" d="M262,122.85c-.51,0-.83-.3-1-.94l-8.51-46.3h-.19l-6.91,46.62c-.12.64-.43,1-.94,1l-5.07.1c-.52,0-.84-.3-1-.94L226.74,59.23c-.15-.63.1-1,.74-1l5.86-.12a.94.94,0,0,1,1.07.94l7.29,46.71h.19l7-47c.05-.64.36-1,.94-1l4.22-.08c.58,0,.9.3,1,.94L264,105.33h.19l5.57-47a1,1,0,0,1,1-1l5.59-.11c.63,0,.89.3.77.94l-9.06,63.56c-.11.64-.43,1-.94,1Z"/><path class="cls-4" d="M290.53,61.68a.86.86,0,0,1,1.13-.76l5.75,1.14a.85.85,0,0,1,.75,1.13l-12.34,62.15a.84.84,0,0,1-1.13.75L279,125a.84.84,0,0,1-.75-1.12Z"/><path class="cls-4" d="M317.76,67.51A.85.85,0,0,1,319,67l5.43,2.43a1.27,1.27,0,0,1,.83,1.43l-5.46,41.31.35.16,26.93-31.7a1.32,1.32,0,0,1,1.7-.29l5.35,2.39a.85.85,0,0,1,.48,1.27l-25.89,57.83a.85.85,0,0,1-1.27.48l-4.73-2.12a.84.84,0,0,1-.49-1.26l18.48-41.27-.43-.2-22.76,26.63a1.15,1.15,0,0,1-1.44.4l-2.9-1.29a1.17,1.17,0,0,1-.66-1.35l4.71-34.71-.43-.19-18.49,41.27a.84.84,0,0,1-1.26.48l-4.74-2.12a.85.85,0,0,1-.48-1.27Z"/><path class="cls-4" d="M375.81,98.16a.84.84,0,0,1,1.35,0l4.34,4.08a1.26,1.26,0,0,1,.32,1.62l-18.7,37.24.28.27,35.83-21.13a1.32,1.32,0,0,1,1.7.29l4.27,4a.85.85,0,0,1,0,1.36L361.82,172a.85.85,0,0,1-1.36,0l-3.78-3.55a.85.85,0,0,1,0-1.36l31-32.92-.35-.33-30.23,17.69a1.13,1.13,0,0,1-1.49-.09l-2.31-2.17a1.15,1.15,0,0,1-.18-1.49l15.82-31.24-.35-.33-31,32.92a.85.85,0,0,1-1.36.05l-3.78-3.56a.85.85,0,0,1,0-1.35Z"/><path class="cls-4" d="M183.28,369a.88.88,0,0,1,1.33-.45l5.45,2.67a.88.88,0,0,1,.45,1.33l-13.69,27.85,27.61-21.22a1.37,1.37,0,0,1,1.52-.15l5.8,2.85c.29.15.45.33.45.56a.56.56,0,0,1-.31.51L188.3,400.52l-3.54,42.38c-.11.68-.43.89-1,.63l-5.89-2.9a1.09,1.09,0,0,1-.68-1.11l3-33.56-9.83,7.59-8.82,17.94a.88.88,0,0,1-1.33.45l-5.44-2.67a.89.89,0,0,1-.46-1.34Z"/><path class="cls-4" d="M223.84,385.56a1.15,1.15,0,0,1,1.28-.74l5.83,1.25a1.06,1.06,0,0,1,.87,1.2l.19,67.17q0,1-1.08.78L225.09,454a1.07,1.07,0,0,1-.86-1.21l.18-15.11-14.69-3.14-6,13.87c-.27.62-.67.88-1.18.76l-5.84-1.24c-.72-.16-.94-.54-.67-1.16Zm.66,45,.51-30-.29-.06L212.54,428Z"/><path class="cls-4" d="M243.31,389.74a.88.88,0,0,1,1-1l7.46-.19a1.35,1.35,0,0,1,1.51,1l16.46,50.31h.4l-1.35-50.71a.89.89,0,0,1,1-1l5.27-.14a.88.88,0,0,1,1,1l1.74,65.62a.88.88,0,0,1-1,1l-7.06.19a1.37,1.37,0,0,1-1.51-1l-16.76-50.3-.5,0,1.35,50.7a.89.89,0,0,1-1,1l-5.27.13a.88.88,0,0,1-1-1Z"/><path class="cls-4" d="M287.59,385.7c0-.69.28-1.11.79-1.24l5.76-1.57a1.06,1.06,0,0,1,1.32.67l31,59.6q.45.91-.6,1.2l-5.76,1.57a1.06,1.06,0,0,1-1.32-.68L312,431.74l-14.49,3.94,1,15.09c.05.67-.19,1.08-.7,1.22L292,453.56c-.7.19-1.07-.05-1.12-.73Zm21.22,39.69-13.31-26.9-.28.08,1.78,30Z"/><path class="cls-4" d="M307.13,379.87a.88.88,0,0,1,.43-1.34l5.39-2.79a.88.88,0,0,1,1.34.43l26.93,52a.53.53,0,0,0,.81.26l15.72-8.14a.88.88,0,0,1,1.34.43l2.52,4.85a.88.88,0,0,1-.43,1.34l-22.52,11.66a.87.87,0,0,1-1.34-.42Z"/></svg>