<svg id="Ebene_1" data-name="Ebene 1" xmlns="http://www.w3.org/2000/svg" viewBox="0 0 512 512"><defs><style>.cls-1{fill:#ff6244;}.cls-2{fill:#fff;}.cls-3{fill:#0071b7;}</style></defs><title>kanal-zu</title><circle class="cls-1" cx="256" cy="256" r="123"/><g id="g10"><g id="g12"><path id="path16" class="cls-2" d="M149.59,279.78H362.41a110.67,110.67,0,0,0,0-47.56H149.58a110.67,110.67,0,0,0,0,47.56h0"/></g></g><path class="cls-3" d="M159.81,138.35q7,7,7.93,12.73t-4.9,11.63q-10.34,10.42-22.75-.92c-.45-.45-.52-.87-.21-1.28l3.24-4.77a.77.77,0,0,1,1.36-.14q4.5,4.05,7.62,4.37a6.9,6.9,0,0,0,5.76-2.33q2.64-2.65,2.25-5.54T155,144.55a35.38,35.38,0,0,0-3.62-3.17,9.93,9.93,0,0,0-3.16-1.65,7.3,7.3,0,0,0-3.12-.19,14.2,14.2,0,0,0-3.5,1.07l-3.86,1.71a23.76,23.76,0,0,1-5.93,2,13.19,13.19,0,0,1-5.06-.08,14,14,0,0,1-4.76-2.15,35.93,35.93,0,0,1-5-4.26q-12-11.88-1.73-22.25,5.2-5.25,10.46-5t11,5.41a.92.92,0,0,1,.14,1.36l-3.17,4.42a.72.72,0,0,1-.57.52.9.9,0,0,1-.72-.31q-3.62-3.3-6.46-3.77c-1.91-.3-3.73.43-5.49,2.2s-2.44,3.53-2.18,5.41,1.57,4,3.93,6.33a22.85,22.85,0,0,0,3.27,2.76,8.79,8.79,0,0,0,2.93,1.35,6.82,6.82,0,0,0,2.95,0,16.57,16.57,0,0,0,3.49-1.21l3.86-1.71a25.24,25.24,0,0,1,5.73-1.83,13,13,0,0,1,5.09.11,15.21,15.21,0,0,1,5,2.22A37,37,0,0,1,159.81,138.35Z"/><path class="cls-3" d="M170.52,142.5a18.94,18.94,0,0,1-1.65-1.62,33.7,33.7,0,0,1-2.35-3q-1.46-2-3.75-5.59t-6-9.39q-3.69-5.85-5.9-9.45c-1.47-2.4-2.61-4.32-3.42-5.78a32.39,32.39,0,0,1-1.67-3.38c-.31-.78-.57-1.53-.78-2.23a13.82,13.82,0,0,1,.43-8.67,15.07,15.07,0,0,1,6.3-6.92Q157.2,83,162.26,84c3.37.68,6.58,3,9.62,7a.93.93,0,0,1,0,1.38l-4.06,3.81c-.53.49-1,.46-1.3-.08q-5.23-7-10.75-3.55-4.3,2.72-3.12,7.3c.13.44.31,1,.55,1.58a22.78,22.78,0,0,0,1.44,2.84q1.1,1.92,3.18,5.31t5.67,9.08q3.65,5.76,5.78,9.07c1.42,2.2,2.56,3.91,3.4,5.12a23.15,23.15,0,0,0,1.93,2.53c.45.47.85.86,1.19,1.17q3.63,3,7.93.34,5.52-3.48,1.43-11.23c-.34-.54-.18-1,.49-1.22l5.19-2a.93.93,0,0,1,1.26.56c2.29,4.47,3,8.36,2.16,11.7s-3.09,6.14-6.72,8.43a15,15,0,0,1-9,2.7A13.8,13.8,0,0,1,170.52,142.5Z"/><path class="cls-3" d="M180.38,73.14a.85.85,0,0,1,.62-1.21l5.56-1.82a.85.85,0,0,1,1.21.61l8.29,25.37a.51.51,0,0,0,.73.37l13.32-4.35a.51.51,0,0,0,.37-.73L202.19,66a.85.85,0,0,1,.61-1.21L208.37,63a.85.85,0,0,1,1.21.62l19.68,60.22a.84.84,0,0,1-.61,1.21l-5.57,1.82a.84.84,0,0,1-1.21-.61l-8.8-26.92a.5.5,0,0,0-.72-.37L199,103.3a.51.51,0,0,0-.37.73L207.45,131a.84.84,0,0,1-.61,1.21L201.27,134a.85.85,0,0,1-1.21-.62Z"/><path class="cls-3" d="M260.23,122.79q-.78,0-1-.93l-9.11-46.19h-.19l-6.31,46.7q-.16,1-.93,1l-5.07.17c-.52,0-.84-.3-1-.93l-12.45-63c-.15-.64.1-1,.74-1l5.85-.19a1,1,0,0,1,1.09.92L239.75,106h.2l6.4-47.09q.08-1,.93-1l4.22-.14q.87,0,1,.93L262,105.24h.2l5-47a.94.94,0,0,1,1-1l5.59-.19c.64,0,.9.29.79.93l-8.24,63.67c-.11.65-.41,1-.92,1Z"/><path class="cls-3" d="M288,61.25a.85.85,0,0,1,1.12-.77l5.76,1.06a.85.85,0,0,1,.77,1.12L284.12,125a.84.84,0,0,1-1.11.77l-5.76-1.06a.85.85,0,0,1-.77-1.12Z"/><path class="cls-3" d="M315.29,66.72a.85.85,0,0,1,1.27-.5L322,68.58a1.25,1.25,0,0,1,.85,1.41L318,111.38l.35.15,26.51-32a1.32,1.32,0,0,1,1.7-.31l5.37,2.32a.84.84,0,0,1,.5,1.26l-25.13,58.16a.84.84,0,0,1-1.26.5l-4.76-2a.85.85,0,0,1-.5-1.27l17.93-41.5-.44-.19-22.4,26.92a1.15,1.15,0,0,1-1.44.42l-2.91-1.25a1.17,1.17,0,0,1-.68-1.34l4.26-34.77-.44-.19L296.68,127.7a.85.85,0,0,1-1.26.5l-4.76-2.06a.84.84,0,0,1-.5-1.26Z"/><path class="cls-3" d="M373.74,96.61a.85.85,0,0,1,1.36-.06l4.39,4a1.27,1.27,0,0,1,.34,1.62l-18.21,37.48.28.26,35.55-21.59a1.33,1.33,0,0,1,1.71.27l4.32,4a.85.85,0,0,1,.06,1.36l-42.82,46.7a.85.85,0,0,1-1.36.06l-3.82-3.5a.85.85,0,0,1-.06-1.36L386,132.49l-.36-.32-30,18.08a1.15,1.15,0,0,1-1.5-.07L351.86,148a1.14,1.14,0,0,1-.2-1.48l15.41-31.45-.35-.33-30.56,33.33a.84.84,0,0,1-1.35.06l-3.82-3.5a.85.85,0,0,1-.06-1.36Z"/><path class="cls-3" d="M188.93,372.44a.88.88,0,0,1,1.3-.52l5.58,2.41a.88.88,0,0,1,.51,1.31L184,404.13l26.54-22.56a1.32,1.32,0,0,1,1.5-.22l5.93,2.56c.31.13.47.31.48.53a.57.57,0,0,1-.28.53l-22.7,18.69L194,446.16c-.08.68-.39.91-.94.67l-6-2.6a1.08,1.08,0,0,1-.72-1.07l1.32-33.67-9.44,8.06-7.93,18.36a.88.88,0,0,1-1.31.51l-5.57-2.4a.88.88,0,0,1-.52-1.31Z"/><path class="cls-3" d="M230.25,387c.31-.62.72-.89,1.24-.81l5.89,1a1.07,1.07,0,0,1,.93,1.16l3.49,67.08c0,.67-.32.95-1,.83l-5.89-.95a1.06,1.06,0,0,1-.92-1.16L233.38,439l-14.82-2.41-5.32,14.15c-.24.63-.62.91-1.15.82l-5.89-1c-.72-.11-1-.49-.72-1.12Zm2.88,44.91-1-30-.29-.05-10.82,28.07Z"/><path class="cls-3" d="M249.93,390.2a.88.88,0,0,1,.92-1.07l7.44-.55a1.37,1.37,0,0,1,1.56.88l18.87,49.45.39,0-3.78-50.58a.88.88,0,0,1,.91-1.07l5.26-.39a.88.88,0,0,1,1.07.92l4.9,65.46a.88.88,0,0,1-.92,1.07l-7,.52a1.37,1.37,0,0,1-1.56-.88L258.78,404.5l-.49,0,3.79,50.58a.88.88,0,0,1-.92,1.07l-5.26.39a.87.87,0,0,1-1.06-.92Z"/><path class="cls-3" d="M293.94,384c0-.69.22-1.12.73-1.29l5.67-1.85a1.06,1.06,0,0,1,1.35.61l33.88,58c.33.59.15,1-.54,1.22l-5.68,1.85A1,1,0,0,1,328,442l-7.43-13.17-14.28,4.66,1.76,15c.08.67-.13,1.08-.64,1.25l-5.67,1.85c-.7.23-1.08,0-1.16-.67Zm23.15,38.59-14.62-26.21-.28.1,3.27,29.9Z"/><path class="cls-3" d="M313.17,377.22a.88.88,0,0,1,.36-1.36l5.24-3.05a.88.88,0,0,1,1.36.36l29.46,50.64a.52.52,0,0,0,.81.22l15.31-8.9a.87.87,0,0,1,1.36.36l2.75,4.72a.89.89,0,0,1-.36,1.37l-21.93,12.75a.88.88,0,0,1-1.36-.36Z"/></svg>